# xmcd
#
# Track frame offsets:
#	150
#	13137
#	31004
#	51140
#	73727
#	98295
#	117521
#	140316
#	170402
#	191736
#	209788
#	225303
#	256320
#	287416
#
# Disc length: 4151 seconds
#
# Revision: 1
# Processed by: cddbd v1.5.2PL0 Copyright (c) Steve Scherf et al.
# Submitted via: audiograbber 1.83.01
#
DISCID=bf10350e
DTITLE=AZ - Mezzanine De L'Alcazar Vol. 07
DYEAR=2009
DGENRE=Blues
TTITLE0=Gwen McCare - 90% Of Me Is You
TTITLE1=Visioneers - Runnin
TTITLE2=Flevans feat. Sweet Laredo - The Notion
TTITLE3=Jimpster feat. Rasiyah - Secret Sun
TTITLE4=Only Child feat. Niko - Show Me Love
TTITLE5=Elektrons - Hurry On Down
TTITLE6=Flash Callahan - Do You Know the Truth
TTITLE7=Metro Area - Murra
TTITLE8=Playgroup - Number One
TTITLE9=Fujiya and Miyagi - Collarbone
TTITLE10=Booka Shade - Karma Care
TTITLE11=Outlines - Listen To The Drums
TTITLE12=Dolle Jolle - Balearic Incarnation
TTITLE13=Cicada - Edge
EXTD=
EXTT0=
EXTT1=
EXTT2=
EXTT3=
EXTT4=
EXTT5=
EXTT6=
EXTT7=
EXTT8=
EXTT9=
EXTT10=
EXTT11=
EXTT12=
EXTT13=
PLAYORDER=
